<?xml version="1.0" standalone="no"?>
<!DOCTYPE svg PUBLIC "-//W3C//DTD SVG 1.1//EN" "http://www.w3.org/Graphics/SVG/1.1/DTD/svg11.dtd">
<svg xmlns="http://www.w3.org/2000/svg" version="1.1" width="100px" height="100px">
  <!-- Copyright (c) 2017 Sanctuary -->
  <path
    fill-rule="evenodd"
    fill="#080"
    d="M 50,0
       a 50,50 0 0,1 0,100
       a 50,50 0 0,1 0,-100
       Z
       m 0,6
       a 44,44 0 0,1 0,88
       a 44,44 0 0,1 0,-88
       Z
       M 61.34 33.96
       Q 59.82 31.87 57.23 30.54
       Q 54.64 29.20 51.40 29.20
       Q 49.67 29.20 47.91 29.67
       Q 46.14 30.14 44.70 31.18
       Q 43.26 32.23 42.36 33.78
       Q 41.46 35.32 41.46 37.48
       Q 41.46 39.57 42.29 40.98
       Q 43.12 42.38 44.52 43.35
       Q 45.93 44.32 47.84 45.01
       Q 49.74 45.69 51.90 46.41
       Q 54.50 47.20 57.16 48.21
       Q 59.82 49.22 61.98 50.88
       Q 64.14 52.53 65.51 55.02
       Q 66.88 57.50 66.88 61.32
       Q 66.88 65.28 65.40 68.19
       Q 63.93 71.11 61.48 73.02
       Q 59.03 74.92 55.83 75.86
       Q 52.62 76.80 49.24 76.80
       Q 44.42 76.80 39.92 74.92
       Q 35.42 73.05 32.46 69.38
       L 38.01 64.70
       Q 39.81 67.36 42.83 69.02
       Q 45.86 70.68 49.38 70.68
       Q 51.18 70.68 52.98 70.17
       Q 54.78 69.67 56.26 68.59
       Q 57.74 67.51 58.67 65.89
       Q 59.61 64.27 59.61 61.96
       Q 59.61 59.66 58.64 58.11
       Q 57.66 56.56 56.01 55.48
       Q 54.35 54.40 52.16 53.65
       Q 49.96 52.89 47.51 52.10
       Q 45.06 51.38 42.69 50.34
       Q 40.31 49.29 38.44 47.67
       Q 36.57 46.05 35.42 43.68
       Q 34.26 41.30 34.26 37.77
       Q 34.26 33.96 35.81 31.22
       Q 37.36 28.48 39.84 26.68
       Q 42.33 24.88 45.46 24.06
       Q 48.59 23.23 51.76 23.23
       Q 56.22 23.23 60.11 24.81
       Q 64 26.40 66.38 29.06
       L 61.34 33.96
       Z"
    />
</svg>
